<?xml version="1.0" encoding="UTF-8" standalone="no"?>

<svg width="32.000034" height="32.000015" viewBox="0 0 0.96000103 0.96000046" fill="none" stroke="#ffffff" version="1.1" id="svg3" sodipodi:docname="book-saved-svgrepo-com.svg" inkscape:export-filename="boorepo-comX7.svg" inkscape:export-xdpi="95.999901" inkscape:export-ydpi="95.999901" xml:space="preserve" xmlns:inkscape="http://www.inkscape.org/namespaces/inkscape" xmlns:sodipodi="http://sodipodi.sourceforge.net/DTD/sodipodi-0.dtd" xmlns="http://www.w3.org/2000/svg" xmlns:svg="http://www.w3.org/2000/svg">
  <defs id="defs3" />
  <sodipodi:namedview id="namedview3" pagecolor="#505050" bordercolor="#eeeeee" borderopacity="1" inkscape:showpageshadow="0" inkscape:pageopacity="0" inkscape:pagecheckerboard="0" inkscape:deskcolor="#505050" showgrid="false" />
  <rect style="fill:#ffffff;fill-opacity:1;stroke-width:0;stroke-linecap:butt;stroke-linejoin:round;stroke-dasharray:none" id="rect16" width="0.96000004" height="0.9599995" x="5e-07" y="5e-07" ry="0.12091596" />
  <g id="g18" transform="matrix(0.90961,0,0,0.90961,0.07067556,0.04338721)">
    <path style="fill:#292d32;fill-opacity:1;stroke-width:0;stroke-dasharray:none" d="M 0.43226654,0.88143519 C 0.35459585,0.84158641 0.20916114,0.79633676 0.11063514,0.78136488 0.07333589,0.77569692 0.06510531,0.77193375 0.04833272,0.75287911 0.02880165,0.73069062 0.02977777,0.74916852 0.03057171,0.41666625 0.03136123,0.08601498 0.02988647,0.11161932 0.04938484,0.09003696 0.07289177,0.06401761 0.10302585,0.06196003 0.18714013,0.08063091 0.26639287,0.09822267 0.35291428,0.13092963 0.42087994,0.16898957 l 0.0333497,0.0186754 4.747e-5,0.35166504 c 2.677e-5,0.19341579 -8.3537e-4,0.35160712 -0.001916,0.35153621 -0.00108,-7.12e-5 -0.0101236,-0.004315 -0.0200958,-0.009431 z" id="path4" />
    <path style="fill:#292d32;fill-opacity:1;stroke-width:0;stroke-dasharray:none" d="m 0.48834505,0.86643091 c 0.0693359,-0.0383792 0.19916339,-0.08196 0.28711632,-0.0963797 0.0332963,-0.005459 0.0406441,-0.009083 0.0556162,-0.0274352 0.0174351,-0.0213702 0.0165638,-0.003574 0.015855,-0.32381327 C 0.84622783,0.10034593 0.84754436,0.12500597 0.83013848,0.10421957 0.80915407,0.07915987 0.78225383,0.07717816 0.70716605,0.09516047 0.63641789,0.11210348 0.55918158,0.14360414 0.49850946,0.18026048 l -0.0297711,0.0179866 -4.24e-5,0.33869557 c -2.384e-5,0.18628257 7.4575e-4,0.33863978 0.001714,0.33857148 9.641e-4,-6.857e-5 0.009038,-0.004156 0.0179394,-0.009083 z" id="path4-5" />
    <path style="fill:#ff6600;fill-opacity:1;stroke-width:0;stroke-dasharray:none" d="m 0.44409709,0.53980266 c 0,-0.2568893 7.9312e-4,-0.35344741 0.002903,-0.35344741 0.001597,0 0.0164579,-0.007783 0.0330251,-0.0172953 0.0165672,-0.009512 0.0364787,-0.0201064 0.0442477,-0.0235423 l 0.0141255,-0.006247 v 0.0616088 c 0,0.0671105 9.939e-4,0.0728598 0.0147394,0.085253 0.0188907,0.0170324 0.0432681,0.0172651 0.0678558,6.4756e-4 0.008599,-0.005812 0.0204867,-0.0136078 0.0264162,-0.0173243 l 0.0107809,-0.006757 0.0257454,0.0172164 c 0.0270541,0.0180916 0.0381498,0.0215657 0.0573643,0.017961 0.0113983,-0.002138 0.0271132,-0.0153857 0.0319316,-0.0269176 0.002756,-0.006595 0.003539,-0.0298793 0.003539,-0.10517313 V 0.06908234 l 0.0144008,-0.0017993 c 0.0298067,-0.0037241 0.0589189,0.01234171 0.0725665,0.04004642 l 0.006024,0.012229 v 0.30254983 0.30254982 l -0.007,0.0132636 c -0.006829,0.0129387 -0.0222562,0.0291247 -0.0334909,0.0351374 -0.003075,0.001646 -0.0235133,0.00596 -0.0454177,0.009587 -0.0950772,0.0157436 -0.22369797,0.0560164 -0.31290697,0.0979752 l -0.0268496,0.0126285 z" id="path5" />
  </g>
</svg>